PathFileType	4	(X/Y/Z)	C:\Users\WrightLab\Desktop\Jo\P3_27.trc
DataRate	CameraRate	NumFrames	NumMarkers	Units	OrigDataRate	OrigDataStartFrame	OrigNumFrames
100.00	100.00	       11	19	mm	100.00	275	       549
Frame#	Time	Headset_Front			Headset_Back			Headset_Left			Headset_Right			Left_Shoulder			Right_Shoulder			Sternum			C7			Left Elbow			Right Elbow			Left Wrist			Right Wrist			Left ASIS			Right ASIS			S2			Left Knee			Right Knee			Left Ankle			Right Ankle			
		X1	Y1	Z1	X2	Y2	Z2	X3	Y3	Z3	X4	Y4	Z4	X5	Y5	Z5	X6	Y6	Z6	X7	Y7	Z7	X8	Y8	Z8	X9	Y9	Z9	X10	Y10	Z10	X11	Y11	Z11	X12	Y12	Z12	X13	Y13	Z13	X14	Y14	Z14	X15	Y15	Z15	X16	Y16	Z16	X17	Y17	Z17	X18	Y18	Z18	X19	Y19	Z19	

275	2.740	-629.11902	1372.11145	-455.42303	-643.06122	1591.28833	-248.00513	-746.39032	1499.19006	-335.35391	-528.86578	1447.74707	-371.16461	-819.20184	1306.28162	-169.12274	-463.29483	1301.55408	-216.37511	-667.40735	1179.88660	-314.17172	-633.63654	1363.22766	-154.33896	-932.69836	989.83063	-154.50227	-377.46979	961.79742	-171.97105	-968.06519	826.72473	-275.35233	-381.43402	761.10547	-275.37595	-765.47858	821.83441	-243.58804	-519.61749	830.85583	-308.79703	-594.70593	908.60785	-73.54703	-729.76147	426.44598	-61.86071	-561.34247	428.13651	-383.10895	-676.07098	130.87015	83.61738	-601.98956	101.84590	-449.74191	
276	2.750	-629.70117	1372.30676	-465.23282	-642.93341	1590.33875	-256.08517	-746.24237	1498.43225	-344.07239	-528.75299	1446.83716	-380.16635	-819.80835	1305.11792	-179.13295	-463.85724	1300.00220	-224.94940	-667.79419	1179.29968	-324.33102	-635.26318	1362.17139	-163.86554	-932.53564	988.08270	-163.45432	-379.36859	961.26038	-177.90518	-967.51074	826.05939	-286.07251	-383.24438	759.73773	-282.61749	-767.01642	820.38354	-255.51842	-521.09125	829.78107	-318.72043	-597.04205	907.61041	-83.49967	-731.85834	425.67340	-71.37650	-563.05212	426.35150	-393.17700	-677.18475	133.22623	81.13240	-601.04919	98.14938	-451.93466	
277	2.760	-629.60138	1372.11267	-474.54474	-644.02661	1589.51685	-265.05875	-746.28040	1498.30957	-354.14380	-528.83948	1446.79602	-388.84433	-821.10638	1304.20056	-190.45378	-464.56400	1298.82446	-233.02879	-668.23895	1178.56628	-334.94812	-636.11084	1361.00464	-173.31773	-930.85626	985.36243	-173.43810	-381.68384	960.26294	-185.55164	-966.70764	824.17017	-295.38055	-384.42407	757.73340	-287.50464	-768.59326	818.62134	-266.33163	-522.11255	829.55664	-329.56436	-599.85205	906.70734	-93.74856	-733.49176	424.33398	-79.79674	-564.37463	424.87231	-402.42633	-678.30731	135.53847	77.74107	-602.57355	96.63488	-457.80359	
278	2.770	-629.11279	1372.05115	-483.80200	-642.76776	1588.73120	-273.45947	-746.48090	1497.97266	-363.26062	-529.24963	1446.25464	-397.88351	-822.08545	1303.25354	-200.46701	-465.49161	1297.96252	-242.18008	-668.54639	1178.22205	-344.92673	-636.75146	1359.96704	-182.96313	-932.51550	985.68475	-184.28233	-382.50528	959.17188	-192.47289	-965.63452	822.92468	-305.55936	-385.93747	756.89996	-294.06216	-769.84290	817.60370	-278.90485	-523.06873	829.63885	-340.78238	-602.41016	906.04102	-105.24832	-735.47815	423.85693	-90.02799	-564.43304	422.30612	-409.72369	-680.15967	138.34944	74.50259	-604.54797	97.17081	-464.67194	
279	2.780	-629.19556	1372.65491	-493.68979	-644.07635	1588.30750	-282.67529	-746.97827	1498.11072	-372.37491	-529.08228	1445.84888	-406.77267	-822.68604	1303.11230	-211.03493	-466.34564	1297.02515	-250.90967	-668.49060	1178.07751	-355.17853	-637.97443	1359.44446	-192.62660	-932.30798	984.18555	-193.24640	-384.00943	958.15820	-200.16821	-964.18494	821.71088	-315.75839	-387.01019	755.74805	-301.00659	-771.09528	816.31555	-290.42096	-524.59576	829.21851	-353.85809	-605.06323	904.55310	-116.71455	-738.07684	423.00104	-100.91347	-564.04340	421.64886	-416.42691	-680.67975	140.75217	70.61133	-605.58228	94.41261	-467.10294	
280	2.790	-629.04596	1372.80872	-503.27158	-644.13995	1588.25232	-291.35754	-747.11920	1498.23096	-382.55457	-529.06342	1446.45679	-415.95544	-823.85242	1302.54443	-221.80843	-466.89746	1296.82153	-260.56235	-668.94336	1178.16919	-365.76685	-638.42761	1358.67468	-202.54634	-932.15228	984.00983	-203.53249	-384.90329	958.20795	-207.45473	-962.58392	819.96649	-324.11368	-388.41974	755.46350	-308.14975	-772.16302	815.65204	-303.14590	-525.45166	828.89221	-361.67407	-607.40320	904.11078	-127.33063	-739.23175	422.07510	-111.64001	-564.02057	421.63284	-423.64212	-682.03131	143.61595	66.02695	-607.40106	91.85344	-469.09863	
281	2.800	-628.87823	1373.69739	-513.48529	-644.72675	1588.36511	-300.77530	-747.20746	1498.39697	-392.37476	-529.25562	1446.80737	-424.96661	-824.43494	1302.56775	-231.96127	-467.28903	1296.65479	-268.26376	-668.90820	1179.07520	-376.79953	-638.09509	1359.42773	-209.73875	-931.22388	983.01202	-213.00522	-386.40018	958.06537	-215.08569	-960.80206	818.53827	-333.84796	-389.06570	755.23279	-315.84601	-773.15997	815.04694	-315.59634	-525.85229	829.57159	-371.75366	-608.89026	904.02252	-138.30353	-741.95038	420.95261	-124.65897	-565.18793	422.14117	-431.48990	-682.77142	148.03566	61.68855	-608.78705	90.65471	-472.68820	
282	2.810	-628.22150	1374.51233	-522.77557	-644.58295	1588.72290	-309.68677	-747.09991	1499.25452	-401.80002	-528.72705	1447.42908	-434.10696	-825.29987	1302.93982	-242.31824	-467.70142	1296.75427	-277.27966	-668.64514	1179.50732	-386.94818	-639.09814	1358.52124	-221.05827	-928.63226	981.33838	-222.58115	-388.36108	957.79413	-222.87659	-959.24707	817.56500	-343.29160	-389.47519	755.32764	-324.25821	-773.95178	814.68658	-327.80939	-526.58612	830.43732	-383.45398	-612.19495	903.27917	-150.58557	-744.48505	420.45566	-138.58430	-567.51996	423.00174	-441.25098	-683.74194	151.17004	55.93709	-609.71075	90.68687	-476.91086	
283	2.820	-628.15814	1375.81543	-532.80237	-645.32196	1589.08386	-319.33932	-746.96381	1500.11914	-411.94434	-528.71942	1447.45984	-443.28195	-826.06470	1303.55237	-252.93535	-468.41605	1296.94299	-286.18634	-669.10590	1180.71094	-398.08786	-640.00842	1358.89124	-230.79822	-928.01385	981.55304	-232.46867	-389.63159	957.76923	-230.93892	-957.09863	816.32233	-351.85690	-390.09357	754.93250	-331.83560	-774.63593	814.70972	-340.08838	-527.27173	831.50549	-394.60004	-613.72156	904.40039	-161.38469	-747.16351	419.00504	-152.01503	-569.45905	422.35837	-450.46249	-686.08533	155.91493	49.51117	-610.38062	89.98524	-479.91870	
284	2.830	-627.64307	1376.95850	-543.05835	-644.30139	1590.27490	-328.21732	-746.60144	1500.60364	-420.89090	-528.62146	1449.09851	-452.69882	-826.67035	1304.35669	-263.28995	-468.59882	1297.52136	-294.59290	-668.93115	1181.89429	-407.63919	-640.87500	1359.86096	-240.64554	-928.21289	982.65405	-242.72733	-390.21021	958.78619	-239.01279	-954.15808	814.69055	-359.55115	-390.32669	756.24347	-341.12692	-775.02917	815.28619	-353.18155	-528.53186	832.86432	-406.22928	-615.90417	904.97534	-172.19603	-751.06323	417.91061	-167.57135	-569.98016	421.54700	-458.55231	-687.03082	160.49374	42.55590	-610.84180	89.34483	-481.57245	
285	2.840	-627.50415	1378.32104	-552.12024	-645.18817	1590.76880	-337.73822	-746.26776	1502.07434	-431.72278	-528.25293	1450.63245	-462.94049	-827.34430	1305.99390	-273.61752	-469.21213	1298.45020	-303.56119	-668.89301	1183.18225	-417.90512	-641.06976	1361.63745	-248.02113	-927.14600	982.81042	-252.81418	-391.05487	959.65564	-247.73085	-952.09332	813.71857	-368.41623	-392.65173	757.00311	-348.33917	-775.31110	815.98145	-365.90527	-528.09729	833.85614	-416.52579	-618.33295	905.96600	-183.36662	-755.60425	417.01413	-183.68436	-568.71118	420.90652	-466.48099	-689.80292	165.41655	34.14767	-610.46741	88.46714	-482.45749	
